<svg xmlns="http://www.w3.org/2000/svg" viewBox="0 0 86.35 112.54"><defs><style>.cls-1{fill:#fff;}.cls-2{fill:#9e9e9e;}</style></defs><title>Artboard 1</title><g id="Background"><rect class="cls-1" x="-454.82" y="-76.13" width="800" height="800"/></g><g id="Objects"><path class="cls-2" d="M83.09,67.55V17.66h-.22c-.52-1.09-2-2.11-4.14-3V6.95h-.19C76.69,3,61.56,0,43.18,0S9.66,3,7.81,6.95H7.62v7.67c-2.18.93-3.62,2-4.14,3H3.27V67.55a3.27,3.27,0,1,0,0,6.53v21h0c.45,2.4,5.33,4.54,12.91,6.06v5.72h0c.59,3.13,12.42,5.64,26.93,5.64S69.51,110,70.1,106.9h0v-5.72c7.58-1.52,12.46-3.66,12.91-6.06h0v-21a3.27,3.27,0,0,0,0-6.53ZM8.67,38.36H5V23.85H8.67Zm7.15,2H12.18V25.82h3.63ZM23,41.86H19.41V27.35H23ZM30.32,43H26.69V28.44h3.63Zm7.32.66H34V29.1h3.63Zm7.34.22H41.36V29.32H45Zm7.34-.22H48.71V29.1h3.63ZM59.66,43H56V28.44h3.63Zm7.29-1.09H63.32V27.35h3.63ZM43.18,12.27c-16.29,0-25.87-2.84-26.92-4.51a2.94,2.94,0,0,1,1-.81h-.19l.35-.09c3.17-1.63,12.08-3.61,25.71-3.61s22.55,2,25.71,3.61l.35.09h-.19a2.94,2.94,0,0,1,1,.81C69,9.43,59.47,12.27,43.18,12.27Zm31,28.06H70.54V25.82h3.63Zm7.15-2H77.69V23.85h3.63Z"/></g></svg>