<svg xmlns="http://www.w3.org/2000/svg" viewBox="0 0 1920 925">
    <g fill="none" fill-rule="evenodd">
        <circle cx="1159.15" cy="462.73" r="445.75"/>
        <path d="M14.59,583.07,34.09,550.3q3.24-5.81,8.83-6.87a13.42,13.42,0,0,1,10.68,2.64,371.88,371.88,0,0,0,40.88,25.37,115.16,115.16,0,0,0,57.13,14.8q15.79,0,27.87-4.76a60.69,60.69,0,0,0,20.44-11.63,50.11,50.11,0,0,0,12.54-16.39,40,40,0,0,0,4.18-18,33.48,33.48,0,0,0-6.5-20.09q-6-7.4-16.72-13.22a87.8,87.8,0,0,0-11.15-4.76q-6-2.11-13.47-4.23-7-2.11-14.17-3.7t-15.1-3.17q-5.12-1.05-11.15-2.38t-12.54-2.91A126.54,126.54,0,0,1,88,473.12a124.22,124.22,0,0,1-28.33-13.22,97.46,97.46,0,0,1-25.08-20.62q-11.15-11.62-18.12-29.6-6.51-17.44-6.5-40.17Q9.94,336.22,22,313a102.82,102.82,0,0,1,30.66-35.42,130,130,0,0,1,41.8-18,189.07,189.07,0,0,1,44.59-5.29,205.8,205.8,0,0,1,38.09,3.17,145.55,145.55,0,0,1,16,4q7.66,2.38,15.1,5a141.45,141.45,0,0,1,14.4,7.14q7,4,13.47,8.19,4.64,3.17,8.83,6.34t9.29,6.34a16.47,16.47,0,0,1,6,10.57,17.34,17.34,0,0,1-2.79,12.16L238,348.9q-3.72,5.82-9.52,6.87a13.73,13.73,0,0,1-10.92-2.64Q199.46,339.92,183.2,333a111,111,0,0,0-46.91-10,85.8,85.8,0,0,0-9.06.53q-4.88.53-10,1.59A86.55,86.55,0,0,0,96.8,333a65.12,65.12,0,0,0-8.59,5.81,43.06,43.06,0,0,0-7.2,7.4,33.66,33.66,0,0,0-6,20.09A27.5,27.5,0,0,0,82.4,385.9a59.29,59.29,0,0,0,19,13.21q6,2.65,12.31,4.76T127,408.11q7,2.12,13.7,3.7t13.24,3.7q5.11,1.07,10.68,2.64a106.08,106.08,0,0,0,12.08,2.64q6.5,1.06,13.47,2.91a144.37,144.37,0,0,1,13.94,4.49,79.52,79.52,0,0,1,7.66,2.64q3.94,1.59,7.66,3.17,5.57,2.65,12.77,6.87a95.37,95.37,0,0,1,12.31,8.46,60.75,60.75,0,0,1,6.74,5.55q3,2.91,5.81,6.08a91.16,91.16,0,0,1,17.65,30.66q7,18.51,7,44.4,0,29.61-9.29,52.33-9.3,22.2-26.48,36.47A108.36,108.36,0,0,1,205,647a181.56,181.56,0,0,1-52.49,7.4q-26.95,0-46.92-4.76a151.32,151.32,0,0,1-36.7-12.16,180.12,180.12,0,0,1-31.59-18q-4.65-3.17-9.29-6.61t-9.75-7.67a14.47,14.47,0,0,1-6-10A18.7,18.7,0,0,1,14.59,583.07Z"/>
        <path d="M14.59,583.07,34.09,550.3q3.24-5.81,8.83-6.87a13.42,13.42,0,0,1,10.68,2.64,371.88,371.88,0,0,0,40.88,25.37,115.16,115.16,0,0,0,57.13,14.8q15.79,0,27.87-4.76a60.69,60.69,0,0,0,20.44-11.63,50.11,50.11,0,0,0,12.54-16.39,40,40,0,0,0,4.18-18,33.48,33.48,0,0,0-6.5-20.09q-6-7.4-16.72-13.22a87.8,87.8,0,0,0-11.15-4.76q-6-2.11-13.47-4.23-7-2.11-14.17-3.7t-15.1-3.17q-5.12-1.05-11.15-2.38t-12.54-2.91A126.54,126.54,0,0,1,88,473.12a124.22,124.22,0,0,1-28.33-13.22,97.46,97.46,0,0,1-25.08-20.62q-11.15-11.62-18.12-29.6-6.51-17.44-6.5-40.17Q9.94,336.22,22,313a102.82,102.82,0,0,1,30.66-35.42,130,130,0,0,1,41.8-18,189.07,189.07,0,0,1,44.59-5.29,205.8,205.8,0,0,1,38.09,3.17,145.55,145.55,0,0,1,16,4q7.66,2.38,15.1,5a141.45,141.45,0,0,1,14.4,7.14q7,4,13.47,8.19,4.64,3.17,8.83,6.34t9.29,6.34a16.47,16.47,0,0,1,6,10.57,17.34,17.34,0,0,1-2.79,12.16L238,348.9q-3.72,5.82-9.52,6.87a13.73,13.73,0,0,1-10.92-2.64Q199.46,339.92,183.2,333a111,111,0,0,0-46.91-10,85.8,85.8,0,0,0-9.06.53q-4.88.53-10,1.59A86.55,86.55,0,0,0,96.8,333a65.12,65.12,0,0,0-8.59,5.81,43.06,43.06,0,0,0-7.2,7.4,33.66,33.66,0,0,0-6,20.09A27.5,27.5,0,0,0,82.4,385.9a59.29,59.29,0,0,0,19,13.21q6,2.65,12.31,4.76T127,408.11q7,2.12,13.7,3.7t13.24,3.7q5.11,1.07,10.68,2.64a106.08,106.08,0,0,0,12.08,2.64q6.5,1.06,13.47,2.91a144.37,144.37,0,0,1,13.94,4.49,79.52,79.52,0,0,1,7.66,2.64q3.94,1.59,7.66,3.17,5.57,2.65,12.77,6.87a95.37,95.37,0,0,1,12.31,8.46,60.75,60.75,0,0,1,6.74,5.55q3,2.91,5.81,6.08a91.16,91.16,0,0,1,17.65,30.66q7,18.51,7,44.4,0,29.61-9.29,52.33-9.3,22.2-26.48,36.47A108.36,108.36,0,0,1,205,647a181.56,181.56,0,0,1-52.49,7.4q-26.95,0-46.92-4.76a151.32,151.32,0,0,1-36.7-12.16,180.12,180.12,0,0,1-31.59-18q-4.65-3.17-9.29-6.61t-9.75-7.67a14.47,14.47,0,0,1-6-10A18.7,18.7,0,0,1,14.59,583.07Z"/>
        <path d="M537.15,325.64H468.87a13.1,13.1,0,0,0-10.22,4.76A17,17,0,0,0,454.47,342V630.65a17,17,0,0,1-4.18,11.63A13.1,13.1,0,0,1,440.07,647H403.84a13.1,13.1,0,0,1-10.22-4.76,17,17,0,0,1-4.18-11.63V342a17,17,0,0,0-4.18-11.63A13.11,13.11,0,0,0,375,325.64H306.29a13.1,13.1,0,0,1-10.22-4.76,17,17,0,0,1-4.18-11.63V276.48a17,17,0,0,1,4.18-11.63,13.1,13.1,0,0,1,10.22-4.76H537.15a13.11,13.11,0,0,1,10.22,4.76,17,17,0,0,1,4.18,11.63v32.77a17,17,0,0,1-4.18,11.63A13.11,13.11,0,0,1,537.15,325.64Z"/>
        <path d="M682.07,642.28q-27.87-12.15-46-32.77-19.51-21.14-29.73-51.27-10.22-29.6-10.22-67.13V277a17,17,0,0,1,4.18-11.63,12.65,12.65,0,0,1,9.75-4.76h36.7A13.11,13.11,0,0,1,657,265.38,17,17,0,0,1,661.17,277V490.57q0,29.08,8.36,48.1,8.36,18.51,20.44,30.13,13,11.63,26.48,15.33a126.79,126.79,0,0,0,13.7,3.17A70.74,70.74,0,0,0,742,588.36q10.21,0,25.08-4.23,14.39-3.69,26.48-15.33,12.54-11.1,20.9-30.13t8.36-48.1V277A17,17,0,0,1,827,265.38a13.1,13.1,0,0,1,10.22-4.76h36.23a13.11,13.11,0,0,1,10.22,4.76A17,17,0,0,1,887.84,277V491.1a232.36,232.36,0,0,1-2.55,35.15,194.41,194.41,0,0,1-7.66,32q-10.22,29.61-29.26,51.27-18.58,20.61-46,32.77Q775.9,653.9,742,653.91T682.07,642.28Z"/>
        <polygon points="998 229 1231 462 998 695 998 229"/>
        <path d="M1380.08,638h-36.7a12.42,12.42,0,0,1-10-4.76,17.59,17.59,0,0,1-3.95-11.63V268a17.6,17.6,0,0,1,3.95-11.63,12.42,12.42,0,0,1,10-4.76h36.7a13.1,13.1,0,0,1,10.22,4.76,17,17,0,0,1,4.18,11.63V621.65a17,17,0,0,1-4.18,11.63A13.1,13.1,0,0,1,1380.08,638Z"/>
        <circle cx="1687" cy="454" r="224.5"/>
        <path d="M1705.55,302.4c0-.65.65-.84,1.09-1.14a236,236,0,0,1,21-12.42c1-.52,2-1,3-1.44,7.85-3.48,15.73-7,23.6-10.43a41,41,0,0,1,15.11-3.25,18.29,18.29,0,0,1,5,.5,5,5,0,0,1,4,4.62,13.54,13.54,0,0,1-.65,5.22,63.22,63.22,0,0,1-4.47,10.66A113.17,113.17,0,0,1,1761,313.55c-5,6.43-10.51,12.42-15.78,18.76-7.45,8.87-14.71,17.91-22.56,26.46q-16.15,17.57-33.54,33.89c-.57.52-1.12,1.07-1.69,1.59a1.66,1.66,0,0,0-.5,2.06,15.65,15.65,0,0,1,0,10.68c-.79,2.48-1.17,5-1.79,7.45a6.93,6.93,0,0,0,.75,5.42q1.76,3,3.6,5.94a4.3,4.3,0,0,0,5.17,2,35.43,35.43,0,0,1,13.47-.67l15.18,1.32a69.86,69.86,0,0,1,24.62,7.21,85.54,85.54,0,0,1,42.24,45.66,161.19,161.19,0,0,1,9.52,34,208.39,208.39,0,0,1,3,42.53,169.91,169.91,0,0,1-2.48,26.34,19.68,19.68,0,0,0,.55,9.14,60.33,60.33,0,0,0,3.4,9.29,32.45,32.45,0,0,1,2.78,18.06,24.45,24.45,0,0,1-3.7,10.16,13.74,13.74,0,0,1-10.31,6.43,27.55,27.55,0,0,1-11.16-.92,41.21,41.21,0,0,1-6.21-2.24,78.44,78.44,0,0,1-13.44-7.08,7.45,7.45,0,0,0-5.37-1.24c-12.42,1.52-24.84.87-37.27.89a197.67,197.67,0,0,1-20.84-.7,8.5,8.5,0,0,0-6.73,2.14,31.5,31.5,0,0,1-7.45,4.75,124.23,124.23,0,0,1-20.72,7.75,53,53,0,0,1-20.37,1.09,16.8,16.8,0,0,1-13.64-9.94,30.19,30.19,0,0,1-2.78-11.83,7.28,7.28,0,0,0-.15-2.48c-.7-.22-1,.17-1.34.4a69.91,69.91,0,0,1-23.45,10.39c-1.29.32-2.48.52-3.85.94a29,29,0,0,1-13.76.42A4.77,4.77,0,0,1,1580,624a20.89,20.89,0,0,1,1.49-6.09,69.1,69.1,0,0,1,7.21-13.37c.75-1.09,1.42-2.24,2.21-3.3a11.18,11.18,0,0,0,2.09-7.16,81.75,81.75,0,0,0-1.32-13.84,127.7,127.7,0,0,1-1.84-21.42c-.12-10.16.35-20.3,1.07-30.43.2-3,.35-6,.65-8.92a2.73,2.73,0,0,0-1.14-2.48,93.74,93.74,0,0,0-13.07-9.59c-3.3-2-6.56-4-9.94-6.14a77.25,77.25,0,0,1-14.76-12.7,21,21,0,0,1-5-18.73,19.88,19.88,0,0,1,3.21-8.27,28.15,28.15,0,0,0,4.4-11.68c.67-4,1.32-8,1.91-12.1a51.45,51.45,0,0,1,14.91-29.94,75.55,75.55,0,0,1,20.82-14.51,160.59,160.59,0,0,0,17.86-10.06,37.79,37.79,0,0,0,12.84-13.57c3.43-6.16,6.61-12.42,9.61-18.86a57.51,57.51,0,0,0,4.2-16.6,125.23,125.23,0,0,1,5.29-22.16,43.33,43.33,0,0,1,7.7-13.79,116,116,0,0,1,26.93-24.3,62.83,62.83,0,0,1,9-5,30.63,30.63,0,0,1,8.62-2.24,17.62,17.62,0,0,1,3,0,10.34,10.34,0,0,1,9.12,5.64,22.36,22.36,0,0,1,2.68,8.45,35.68,35.68,0,0,1-3,17.39c-.35.82-.72,1.61-1,2.48a1.29,1.29,0,0,0,.32,1.52l-.27-.17h0Z"/>
    </g>
</svg>
